<svg preserveAspectRatio="none" width="100%" height="100%" overflow="visible" style="display: block;" viewBox="0 0 32 32" fill="none" xmlns="http://www.w3.org/2000/svg">
<g id="SVG">
<path id="Vector" d="M20.636 17.1867L22.656 28.5547C22.6786 28.6885 22.6598 28.8261 22.6022 28.949C22.5445 29.0719 22.4507 29.1743 22.3332 29.2424C22.2158 29.3105 22.0804 29.3412 21.9451 29.3303C21.8098 29.3194 21.681 29.2674 21.576 29.1813L16.8027 25.5987C16.5722 25.4265 16.2923 25.3335 16.0047 25.3335C15.717 25.3335 15.4371 25.4265 15.2067 25.5987L10.4253 29.18C10.3204 29.2659 10.1918 29.3178 10.0567 29.3287C9.9215 29.3396 9.78623 29.3091 9.66888 29.2412C9.55154 29.1732 9.4577 29.0711 9.39989 28.9484C9.34208 28.8258 9.32305 28.6884 9.34533 28.5547L11.364 17.1867" stroke="var(--stroke-0, #4CB7E0)" stroke-width="2.66667" stroke-linecap="round" stroke-linejoin="round"/>
<path id="Vector_2" d="M16 18.6667C20.4183 18.6667 24 15.0849 24 10.6667C24 6.24839 20.4183 2.66667 16 2.66667C11.5817 2.66667 8 6.24839 8 10.6667C8 15.0849 11.5817 18.6667 16 18.6667Z" stroke="var(--stroke-0, #4CB7E0)" stroke-width="2.66667" stroke-linecap="round" stroke-linejoin="round"/>
</g>
</svg>
