<svg preserveAspectRatio="none" width="100%" height="100%" overflow="visible" style="display: block;" viewBox="0 0 32 32" fill="none" xmlns="http://www.w3.org/2000/svg">
<g id="SVG">
<path id="Vector" d="M16 9.33333V28" stroke="var(--stroke-0, #4CB7E0)" stroke-width="2.66667" stroke-linecap="round" stroke-linejoin="round"/>
<path id="Vector_2" d="M4 24C3.64638 24 3.30724 23.8595 3.05719 23.6095C2.80714 23.3594 2.66667 23.0203 2.66667 22.6667V5.33333C2.66667 4.97971 2.80714 4.64057 3.05719 4.39052C3.30724 4.14048 3.64638 4 4 4H10.6667C12.0812 4 13.4377 4.5619 14.4379 5.5621C15.4381 6.56229 16 7.91884 16 9.33333C16 7.91884 16.5619 6.56229 17.5621 5.5621C18.5623 4.5619 19.9188 4 21.3333 4H28C28.3536 4 28.6928 4.14048 28.9428 4.39052C29.1929 4.64057 29.3333 4.97971 29.3333 5.33333V22.6667C29.3333 23.0203 29.1929 23.3594 28.9428 23.6095C28.6928 23.8595 28.3536 24 28 24H20C18.9391 24 17.9217 24.4214 17.1716 25.1716C16.4214 25.9217 16 26.9391 16 28C16 26.9391 15.5786 25.9217 14.8284 25.1716C14.0783 24.4214 13.0609 24 12 24H4Z" stroke="var(--stroke-0, #4CB7E0)" stroke-width="2.66667" stroke-linecap="round" stroke-linejoin="round"/>
</g>
</svg>
