<svg preserveAspectRatio="none" width="100%" height="100%" overflow="visible" style="display: block;" viewBox="0 0 32 32" fill="none" xmlns="http://www.w3.org/2000/svg">
<g id="SVG">
<path id="Vector" d="M8 29.3333V5.33333C8 4.62609 8.28095 3.94781 8.78105 3.44771C9.28115 2.94762 9.95942 2.66667 10.6667 2.66667H21.3333C22.0406 2.66667 22.7189 2.94762 23.219 3.44771C23.719 3.94781 24 4.62609 24 5.33333V29.3333H8Z" stroke="var(--stroke-0, #4CB7E0)" stroke-width="2.66667" stroke-linecap="round" stroke-linejoin="round"/>
<path id="Vector_2" d="M8 16H5.33333C4.62609 16 3.94781 16.281 3.44771 16.781C2.94762 17.2811 2.66667 17.9594 2.66667 18.6667V26.6667C2.66667 27.3739 2.94762 28.0522 3.44771 28.5523C3.94781 29.0524 4.62609 29.3333 5.33333 29.3333H8" stroke="var(--stroke-0, #4CB7E0)" stroke-width="2.66667" stroke-linecap="round" stroke-linejoin="round"/>
<path id="Vector_3" d="M24 12H26.6667C27.3739 12 28.0522 12.281 28.5523 12.781C29.0524 13.2811 29.3333 13.9594 29.3333 14.6667V26.6667C29.3333 27.3739 29.0524 28.0522 28.5523 28.5523C28.0522 29.0524 27.3739 29.3333 26.6667 29.3333H24" stroke="var(--stroke-0, #4CB7E0)" stroke-width="2.66667" stroke-linecap="round" stroke-linejoin="round"/>
<path id="Vector_4" d="M13.3333 8H18.6667" stroke="var(--stroke-0, #4CB7E0)" stroke-width="2.66667" stroke-linecap="round" stroke-linejoin="round"/>
<path id="Vector_5" d="M13.3333 13.3333H18.6667" stroke="var(--stroke-0, #4CB7E0)" stroke-width="2.66667" stroke-linecap="round" stroke-linejoin="round"/>
<path id="Vector_6" d="M13.3333 18.6667H18.6667" stroke="var(--stroke-0, #4CB7E0)" stroke-width="2.66667" stroke-linecap="round" stroke-linejoin="round"/>
<path id="Vector_7" d="M13.3333 24H18.6667" stroke="var(--stroke-0, #4CB7E0)" stroke-width="2.66667" stroke-linecap="round" stroke-linejoin="round"/>
</g>
</svg>
