<svg preserveAspectRatio="none" width="100%" height="100%" overflow="visible" style="display: block;" viewBox="0 0 32 32" fill="none" xmlns="http://www.w3.org/2000/svg">
<g id="SVG">
<path id="Vector" d="M20 2.66667H8C7.29276 2.66667 6.61448 2.94762 6.11438 3.44771C5.61428 3.94781 5.33333 4.62609 5.33333 5.33333V26.6667C5.33333 27.3739 5.61428 28.0522 6.11438 28.5523C6.61448 29.0524 7.29276 29.3333 8 29.3333H24C24.7072 29.3333 25.3855 29.0524 25.8856 28.5523C26.3857 28.0522 26.6667 27.3739 26.6667 26.6667V9.33333L20 2.66667Z" stroke="var(--stroke-0, #4CB7E0)" stroke-width="2.66667" stroke-linecap="round" stroke-linejoin="round"/>
<path id="Vector_2" d="M18.6667 2.66667V8C18.6667 8.70724 18.9476 9.38552 19.4477 9.88562C19.9478 10.3857 20.6261 10.6667 21.3333 10.6667H26.6667" stroke="var(--stroke-0, #4CB7E0)" stroke-width="2.66667" stroke-linecap="round" stroke-linejoin="round"/>
<path id="Vector_3" d="M13.3333 12H10.6667" stroke="var(--stroke-0, #4CB7E0)" stroke-width="2.66667" stroke-linecap="round" stroke-linejoin="round"/>
<path id="Vector_4" d="M21.3333 17.3333H10.6667" stroke="var(--stroke-0, #4CB7E0)" stroke-width="2.66667" stroke-linecap="round" stroke-linejoin="round"/>
<path id="Vector_5" d="M21.3333 22.6667H10.6667" stroke="var(--stroke-0, #4CB7E0)" stroke-width="2.66667" stroke-linecap="round" stroke-linejoin="round"/>
</g>
</svg>
