<svg preserveAspectRatio="none" width="100%" height="100%" overflow="visible" style="display: block;" viewBox="0 0 9 8" fill="none" xmlns="http://www.w3.org/2000/svg">
<path id="Vector" d="M6.64987 1L7.65987 6.684C7.67118 6.75093 7.66179 6.81972 7.63295 6.88117C7.60411 6.94262 7.5572 6.9938 7.49849 7.02786C7.43977 7.06193 7.37206 7.07726 7.3044 7.07181C7.23674 7.06635 7.17236 7.04037 7.11986 6.99733L4.7332 5.206C4.61798 5.11992 4.47802 5.07341 4.3342 5.07341C4.19038 5.07341 4.05042 5.11992 3.9352 5.206L1.54453 6.99667C1.49208 7.03962 1.42777 7.06556 1.3602 7.07103C1.29262 7.07649 1.22498 7.06122 1.16631 7.02725C1.10763 6.99327 1.06072 6.94222 1.03181 6.88089C1.00291 6.81956 0.99339 6.75088 1.00453 6.684L2.01387 1" stroke="var(--stroke-0, white)" stroke-width="1.33333" stroke-linecap="round" stroke-linejoin="round"/>
</svg>
