<svg preserveAspectRatio="none" width="100%" height="100%" overflow="visible" style="display: block;" viewBox="0 0 32 32" fill="none" xmlns="http://www.w3.org/2000/svg">
<g id="SVG">
<path id="Vector" d="M21.3333 26.6667V5.33333C21.3333 4.62609 21.0524 3.94781 20.5523 3.44771C20.0522 2.94762 19.3739 2.66667 18.6667 2.66667H13.3333C12.6261 2.66667 11.9478 2.94762 11.4477 3.44771C10.9476 3.94781 10.6667 4.62609 10.6667 5.33333V26.6667" stroke="var(--stroke-0, #4CB7E0)" stroke-width="2.66667" stroke-linecap="round" stroke-linejoin="round"/>
<path id="Vector_2" d="M26.6667 8H5.33333C3.86057 8 2.66667 9.19391 2.66667 10.6667V24C2.66667 25.4728 3.86057 26.6667 5.33333 26.6667H26.6667C28.1394 26.6667 29.3333 25.4728 29.3333 24V10.6667C29.3333 9.19391 28.1394 8 26.6667 8Z" stroke="var(--stroke-0, #4CB7E0)" stroke-width="2.66667" stroke-linecap="round" stroke-linejoin="round"/>
</g>
</svg>
