<svg preserveAspectRatio="none" width="100%" height="100%" overflow="visible" style="display: block;" viewBox="0 0 32 32" fill="none" xmlns="http://www.w3.org/2000/svg">
<g id="SVG">
<path id="Vector" d="M21.3333 4C20.6261 4 19.9478 4.28095 19.4477 4.78105C18.9476 5.28115 18.6667 5.95942 18.6667 6.66667V14.6667C18.6667 15.3739 18.9476 16.0522 19.4477 16.5523C19.9478 17.0524 20.6261 17.3333 21.3333 17.3333C21.687 17.3333 22.0261 17.4738 22.2761 17.7239C22.5262 17.9739 22.6667 18.313 22.6667 18.6667V20C22.6667 20.7072 22.3857 21.3855 21.8856 21.8856C21.3855 22.3857 20.7072 22.6667 20 22.6667C19.6464 22.6667 19.3072 22.8071 19.0572 23.0572C18.8071 23.3072 18.6667 23.6464 18.6667 24V26.6667C18.6667 27.0203 18.8071 27.3594 19.0572 27.6095C19.3072 27.8595 19.6464 28 20 28C22.1217 28 24.1566 27.1571 25.6569 25.6569C27.1571 24.1566 28 22.1217 28 20V6.66667C28 5.95942 27.719 5.28115 27.219 4.78105C26.7189 4.28095 26.0406 4 25.3333 4H21.3333Z" stroke="var(--stroke-0, #4CB7E0)" stroke-width="2.66667" stroke-linecap="round" stroke-linejoin="round"/>
<path id="Vector_2" d="M6.66667 4C5.95942 4 5.28115 4.28095 4.78105 4.78105C4.28095 5.28115 4 5.95942 4 6.66667V14.6667C4 15.3739 4.28095 16.0522 4.78105 16.5523C5.28115 17.0524 5.95942 17.3333 6.66667 17.3333C7.02029 17.3333 7.35943 17.4738 7.60948 17.7239C7.85952 17.9739 8 18.313 8 18.6667V20C8 20.7072 7.71905 21.3855 7.21895 21.8856C6.71885 22.3857 6.04058 22.6667 5.33333 22.6667C4.97971 22.6667 4.64057 22.8071 4.39052 23.0572C4.14048 23.3072 4 23.6464 4 24V26.6667C4 27.0203 4.14048 27.3594 4.39052 27.6095C4.64057 27.8595 4.97971 28 5.33333 28C7.45506 28 9.4899 27.1571 10.9902 25.6569C12.4905 24.1566 13.3333 22.1217 13.3333 20V6.66667C13.3333 5.95942 13.0524 5.28115 12.5523 4.78105C12.0522 4.28095 11.3739 4 10.6667 4H6.66667Z" stroke="var(--stroke-0, #4CB7E0)" stroke-width="2.66667" stroke-linecap="round" stroke-linejoin="round"/>
</g>
</svg>
