<svg preserveAspectRatio="none" width="100%" height="100%" overflow="visible" style="display: block;" viewBox="0 0 24 24" fill="none" xmlns="http://www.w3.org/2000/svg">
<g id="SVG">
<path id="Vector" d="M16.24 7.76L14.436 13.171C14.3378 13.4656 14.1724 13.7333 13.9528 13.9528C13.7333 14.1724 13.4656 14.3378 13.171 14.436L7.76 16.24L9.564 10.829C9.66218 10.5344 9.82761 10.2667 10.0472 10.0472C10.2667 9.82761 10.5344 9.66218 10.829 9.564L16.24 7.76Z" stroke="var(--stroke-0, #4CB7E0)" stroke-width="2" stroke-linecap="round" stroke-linejoin="round"/>
<path id="Vector_2" d="M12 22C17.5228 22 22 17.5228 22 12C22 6.47715 17.5228 2 12 2C6.47715 2 2 6.47715 2 12C2 17.5228 6.47715 22 12 22Z" stroke="var(--stroke-0, #4CB7E0)" stroke-width="2" stroke-linecap="round" stroke-linejoin="round"/>
</g>
</svg>
