<svg preserveAspectRatio="none" width="100%" height="100%" overflow="visible" style="display: block;" viewBox="0 0 32 32" fill="none" xmlns="http://www.w3.org/2000/svg">
<g id="SVG">
<path id="Vector" d="M21.3333 28V25.3333C21.3333 23.9188 20.7714 22.5623 19.7712 21.5621C18.771 20.5619 17.4145 20 16 20H8C6.58551 20 5.22896 20.5619 4.22876 21.5621C3.22857 22.5623 2.66667 23.9188 2.66667 25.3333V28" stroke="var(--stroke-0, #4CB7E0)" stroke-width="2.66667" stroke-linecap="round" stroke-linejoin="round"/>
<path id="Vector_2" d="M12 14.6667C14.9455 14.6667 17.3333 12.2789 17.3333 9.33333C17.3333 6.38781 14.9455 4 12 4C9.05448 4 6.66667 6.38781 6.66667 9.33333C6.66667 12.2789 9.05448 14.6667 12 14.6667Z" stroke="var(--stroke-0, #4CB7E0)" stroke-width="2.66667" stroke-linecap="round" stroke-linejoin="round"/>
<path id="Vector_3" d="M29.3333 28V25.3333C29.3325 24.1516 28.9391 23.0037 28.2152 22.0698C27.4912 21.1358 26.4775 20.4688 25.3333 20.1733" stroke="var(--stroke-0, #4CB7E0)" stroke-width="2.66667" stroke-linecap="round" stroke-linejoin="round"/>
<path id="Vector_4" d="M21.3333 4.17333C22.4806 4.46707 23.4974 5.13427 24.2235 6.06975C24.9497 7.00523 25.3438 8.15577 25.3438 9.34C25.3438 10.5242 24.9497 11.6748 24.2235 12.6103C23.4974 13.5457 22.4806 14.2129 21.3333 14.5067" stroke="var(--stroke-0, #4CB7E0)" stroke-width="2.66667" stroke-linecap="round" stroke-linejoin="round"/>
</g>
</svg>
