<svg preserveAspectRatio="none" width="100%" height="100%" overflow="visible" style="display: block;" viewBox="0 0 32 32" fill="none" xmlns="http://www.w3.org/2000/svg">
<g id="SVG">
<path id="Vector" d="M21.6533 10.3467L19.248 17.5613C19.1171 17.9541 18.8965 18.311 18.6038 18.6038C18.311 18.8965 17.9541 19.1171 17.5613 19.248L10.3467 21.6533L12.752 14.4387C12.8829 14.0459 13.1035 13.689 13.3962 13.3962C13.689 13.1035 14.0459 12.8829 14.4387 12.752L21.6533 10.3467Z" stroke="var(--stroke-0, #4CB7E0)" stroke-width="2.66667" stroke-linecap="round" stroke-linejoin="round"/>
<path id="Vector_2" d="M16 29.3333C23.3638 29.3333 29.3333 23.3638 29.3333 16C29.3333 8.6362 23.3638 2.66667 16 2.66667C8.6362 2.66667 2.66667 8.6362 2.66667 16C2.66667 23.3638 8.6362 29.3333 16 29.3333Z" stroke="var(--stroke-0, #4CB7E0)" stroke-width="2.66667" stroke-linecap="round" stroke-linejoin="round"/>
</g>
</svg>
